<svg width="100" height="100" viewBox="0 0 100 100" fill="none" xmlns="http://www.w3.org/2000/svg">
<g clip-path="url(#clip0_2759_899)">
<path d="M28.907 74.0853C24.538 73.8622 24.6203 67.7171 28.9068 67.5037C41.049 67.5459 73.075 67.515 85.6033 67.5238C89.0299 67.5238 91.9615 65.1919 92.7323 61.8534L99.8462 31.0478C100.254 29.284 99.8425 27.4584 98.7185 26.0395C97.5944 24.6206 95.9117 23.7953 94.1016 23.7953C89.0616 23.7953 46.2801 23.6017 24.3674 23.5143L20.8939 10.626C20.0601 7.54609 17.2494 5.39514 14.0586 5.39514H2.93124C1.31242 5.39514 0 6.70756 0 8.32639C0 9.94521 1.31242 11.2576 2.93124 11.2576H14.0586C14.608 11.2576 15.0916 11.6279 15.2345 12.155L28.5746 61.6492C26.229 61.7344 24.0442 62.6885 22.3875 64.3694C20.6467 66.136 19.7118 68.4743 19.755 70.954C19.8414 75.9131 23.9469 79.9476 28.907 79.9476H33.1811C32.5458 81.2811 32.1892 82.772 32.1892 84.3447C32.1892 90.002 36.7916 94.6044 42.4489 94.6044C48.1062 94.6044 52.7087 90.002 52.7087 84.3447C52.7087 82.7718 52.3518 81.2811 51.7165 79.9476H70.2256C69.5909 81.2808 69.2342 82.7708 69.2342 84.3431C69.2342 90.0004 73.8369 94.6029 79.494 94.6029C85.1513 94.6029 89.7539 90.0002 89.7539 84.3431C89.7539 82.7096 89.3682 81.1651 88.6862 79.7929C89.8462 79.4022 90.6825 78.3081 90.6825 77.0166C90.6825 75.3978 89.3701 74.0853 87.7513 74.0853H28.907ZM46.846 84.3449C46.846 86.7696 44.8734 88.7421 42.4487 88.7421C40.024 88.7421 38.0515 86.7696 38.0515 84.3449C38.0515 81.9215 40.022 79.9498 42.445 79.9478H42.4524C44.8754 79.9498 46.846 81.9215 46.846 84.3449ZM79.4942 88.7406C77.0697 88.7406 75.0969 86.7679 75.0969 84.3433C75.0969 81.9426 77.0312 79.9863 79.4229 79.9478H79.5657C81.9576 79.9863 83.8918 81.9426 83.8918 84.3433C83.8916 86.7679 81.9189 88.7406 79.4942 88.7406ZM94.123 29.6793C94.1404 29.7012 94.1379 29.7116 94.1342 29.7284L91.1367 42.7089H80.9864L82.7148 29.6115L94.0781 29.6572C94.0955 29.6576 94.1059 29.6576 94.123 29.6793ZM63.9029 61.6612V48.5714H74.2994L72.572 61.6612H63.9029ZM49.3674 61.6612L47.6259 48.5714H58.0404V61.6612H49.3674ZM35.8734 61.6612H35.8642C35.1497 61.661 34.5203 61.1791 34.3345 60.4926L31.1214 48.5714H41.7116L43.4532 61.6612H35.8734ZM46.8458 42.7091L45.0829 29.4601L58.0402 29.5122V42.7091H46.8458ZM63.9029 42.7091V29.5359L76.8047 29.5879L75.0731 42.7091H63.9029ZM39.1655 29.436L40.9315 42.7089H29.5413L25.9495 29.3827L39.1655 29.436ZM85.6033 61.6612H78.4851L80.2125 48.5714H89.7827L87.0201 60.5342C86.8669 61.1978 86.2843 61.6612 85.6033 61.6612Z" fill="white"/>
</g>
<defs>
<clipPath id="clip0_2759_899">
<rect width="100" height="100" fill="white"/>
</clipPath>
</defs>
</svg>
