<svg width="100" height="127" viewBox="0 0 100 127" fill="none" xmlns="http://www.w3.org/2000/svg">
<path d="M20.1678 101.762C20.771 101.762 21.2974 101.95 21.747 102.332C22.1966 102.713 22.416 103.189 22.416 103.769C22.416 104.067 22.3447 104.38 22.1966 104.704L13.2368 124.68C13.0175 125.14 12.7104 125.48 12.3101 125.699C11.9099 125.919 11.5041 126.028 11.0928 126.028C10.7035 126.008 10.3306 125.887 9.96875 125.668C9.60684 125.448 9.32719 125.13 9.13527 124.717L0.180951 104.667C0.109667 104.532 0.0603169 104.385 0.0383835 104.234C0.0109667 104.087 0 103.941 0 103.805C0 103.136 0.252234 102.624 0.762187 102.269C1.27214 101.914 1.75467 101.731 2.21528 101.731C3.13648 101.731 3.79997 102.18 4.21122 103.079L12.1566 120.882L10.8845 120.918L18.1773 103.084C18.5831 102.201 19.2466 101.762 20.1678 101.762Z" fill="#333333"/>
<path d="M27.7459 105.289C26.9234 105.289 26.3421 105.164 26.0076 104.908C25.6677 104.657 25.4977 104.208 25.4977 103.56V102.901C25.4977 102.233 25.6841 101.778 26.0625 101.538C26.4353 101.297 27.0111 101.177 27.7842 101.177C28.6287 101.177 29.2209 101.302 29.5609 101.559C29.9008 101.815 30.0708 102.264 30.0708 102.907V103.565C30.0708 104.234 29.8899 104.688 29.5279 104.929C29.1606 105.169 28.5684 105.289 27.7459 105.289ZM29.9611 123.923C29.9611 124.524 29.7528 125.025 29.347 125.428C28.9357 125.83 28.4148 126.034 27.7897 126.034C27.1591 126.034 26.6382 125.83 26.2325 125.428C25.8212 125.025 25.6183 124.524 25.6183 123.923V109.647C25.6183 109.046 25.8212 108.545 26.2325 108.142C26.6437 107.74 27.1646 107.536 27.7897 107.536C28.4203 107.536 28.9357 107.74 29.347 108.142C29.7583 108.545 29.9611 109.046 29.9611 109.647V123.923Z" fill="#333333"/>
<path d="M33.2949 123.16C33.0536 122.836 32.9439 122.423 32.9659 121.916C32.9878 121.409 33.3058 120.97 33.909 120.605C34.2983 120.375 34.7096 120.275 35.1428 120.312C35.576 120.349 35.9982 120.558 36.4149 120.949C37.1168 121.618 37.8516 122.136 38.6247 122.507C39.3979 122.878 40.3684 123.06 41.5254 123.06C41.8873 123.04 42.2876 122.987 42.7208 122.904C43.154 122.825 43.5378 122.637 43.8613 122.35C44.1903 122.062 44.3493 121.618 44.3493 121.017C44.3493 120.511 44.1684 120.108 43.8065 119.81C43.4446 119.513 42.9675 119.256 42.3753 119.047C41.7831 118.838 41.1251 118.645 40.3958 118.462C39.6446 118.253 38.8769 118.023 38.0928 117.772C37.3087 117.522 36.5849 117.192 35.9324 116.785C35.2799 116.383 34.748 115.844 34.3367 115.176C33.9255 114.507 33.7226 113.665 33.7226 112.652C33.7226 111.502 34.0625 110.52 34.737 109.715C35.4115 108.91 36.2888 108.289 37.369 107.85C38.4438 107.411 39.5733 107.191 40.7577 107.191C41.509 107.191 42.2931 107.28 43.1156 107.453C43.9381 107.625 44.7222 107.902 45.4734 108.283C46.2246 108.665 46.8497 109.166 47.3597 109.788C47.6229 110.133 47.7819 110.551 47.8313 111.032C47.8806 111.518 47.6503 111.952 47.1404 112.343C46.7785 112.62 46.3562 112.741 45.8682 112.704C45.3857 112.667 44.9854 112.516 44.6728 112.239C44.2616 111.732 43.7133 111.33 43.0224 111.032C42.3315 110.734 41.5418 110.582 40.6481 110.582C40.2862 110.582 39.8914 110.624 39.4691 110.703C39.0469 110.786 38.6795 110.959 38.3615 111.22C38.049 111.486 37.8899 111.904 37.8899 112.479C37.8899 113.007 38.0709 113.43 38.4328 113.739C38.7947 114.052 39.2827 114.303 39.9023 114.501C40.5165 114.7 41.1799 114.888 41.8818 115.071C42.6056 115.254 43.3459 115.473 44.0916 115.729C44.8428 115.985 45.5283 116.315 46.1588 116.733C46.7894 117.145 47.2939 117.684 47.6832 118.342C48.0725 119 48.2644 119.836 48.2644 120.85C48.2644 122.026 47.9025 123.029 47.1787 123.855C46.4549 124.686 45.5447 125.313 44.459 125.736C43.3733 126.159 42.2602 126.373 41.1196 126.373C39.694 126.373 38.2683 126.138 36.8371 125.663C35.4224 125.192 34.238 124.356 33.2949 123.16Z" fill="#333333"/>
<path d="M53.7918 105.289C52.9693 105.289 52.388 105.164 52.0535 104.908C51.7136 104.657 51.5436 104.208 51.5436 103.56V102.901C51.5436 102.233 51.73 101.778 52.1084 101.538C52.4812 101.297 53.057 101.177 53.8301 101.177C54.6746 101.177 55.2668 101.302 55.6067 101.559C55.9467 101.815 56.1167 102.264 56.1167 102.907V103.565C56.1167 104.234 55.9357 104.688 55.5738 104.929C55.2065 105.169 54.6088 105.289 53.7918 105.289ZM56.0015 123.923C56.0015 124.524 55.7932 125.025 55.3874 125.428C54.9762 125.83 54.4552 126.034 53.8301 126.034C53.1996 126.034 52.6786 125.83 52.2729 125.428C51.8616 125.025 51.6587 124.524 51.6587 123.923V109.647C51.6587 109.046 51.8616 108.545 52.2729 108.142C52.6841 107.74 53.205 107.536 53.8301 107.536C54.4607 107.536 54.9762 107.74 55.3874 108.142C55.7987 108.545 56.0015 109.046 56.0015 109.647V123.923Z" fill="#333333"/>
<path d="M79.2894 116.801C79.2894 118.692 78.8452 120.354 77.9679 121.796C77.0851 123.238 75.9007 124.362 74.4147 125.166C72.9287 125.971 71.2672 126.373 69.4248 126.373C67.5879 126.373 65.9264 125.971 64.4349 125.166C62.949 124.362 61.7645 123.238 60.8817 121.796C59.9989 120.354 59.5602 118.692 59.5602 116.801C59.5602 114.909 59.9989 113.247 60.8817 111.805C61.7645 110.363 62.949 109.234 64.4349 108.419C65.9209 107.604 67.5824 107.191 69.4248 107.191C71.2617 107.191 72.9232 107.599 74.4147 108.419C75.9007 109.24 77.0851 110.368 77.9679 111.805C78.8452 113.247 79.2894 114.909 79.2894 116.801ZM74.9356 116.801C74.9356 115.625 74.6888 114.606 74.1898 113.744C73.6963 112.882 73.0274 112.208 72.1939 111.722C71.3604 111.236 70.4337 110.995 69.4193 110.995C68.4049 110.995 67.4782 111.236 66.6447 111.722C65.8113 112.208 65.1478 112.882 64.6488 113.744C64.1553 114.606 63.9031 115.63 63.9031 116.801C63.9031 117.955 64.1498 118.959 64.6488 119.826C65.1423 120.688 65.8113 121.362 66.6447 121.848C67.4782 122.334 68.4049 122.575 69.4193 122.575C70.4337 122.575 71.3604 122.334 72.1939 121.848C73.0274 121.362 73.6909 120.688 74.1898 119.826C74.6888 118.959 74.9356 117.95 74.9356 116.801ZM69.6058 106.36C69.4138 106.36 69.1616 106.261 68.86 106.068C68.5584 105.875 68.4159 105.592 68.4433 105.221C68.4433 105.012 68.5146 104.793 68.6626 104.563L70.7682 101.036C70.9876 100.665 71.2617 100.346 71.6017 100.069C71.9417 99.7923 72.3255 99.6564 72.7642 99.6564C73.4386 99.6564 73.9376 99.8236 74.2502 100.158C74.5627 100.492 74.7108 100.9 74.6833 101.386C74.6614 101.616 74.5901 101.856 74.4859 102.112C74.3763 102.368 74.2118 102.619 73.9979 102.875L71.2398 105.78C70.9985 106.037 70.7298 106.193 70.4392 106.266C70.1486 106.34 69.869 106.36 69.6058 106.36Z" fill="#333333"/>
<path d="M93.4693 107.191C95.2568 107.191 96.6167 107.547 97.5489 108.262C98.4811 108.978 99.1226 109.929 99.4735 111.115C99.8245 112.302 99.9999 113.624 99.9999 115.071V123.917C99.9999 124.518 99.7916 125.02 99.3858 125.422C98.9746 125.825 98.4536 126.028 97.8285 126.028C97.198 126.028 96.677 125.825 96.2713 125.422C95.86 125.02 95.6571 124.518 95.6571 123.917V115.071C95.6571 114.308 95.5529 113.624 95.3501 113.012C95.1417 112.401 94.7743 111.915 94.2424 111.544C93.7105 111.173 92.9483 110.99 91.9559 110.99C90.9908 110.99 90.1738 111.173 89.5048 111.544C88.8413 111.915 88.3314 112.401 87.9804 113.012C87.6295 113.624 87.454 114.308 87.454 115.071V123.917C87.454 124.518 87.2457 125.02 86.8399 125.422C86.4286 125.825 85.9077 126.028 85.2826 126.028C84.652 126.028 84.1311 125.825 83.7253 125.422C83.3141 125.02 83.1112 124.518 83.1112 123.917V109.642C83.1112 109.041 83.3141 108.539 83.7253 108.137C84.1366 107.735 84.6575 107.531 85.2826 107.531C85.9132 107.531 86.4286 107.735 86.8399 108.137C87.2511 108.539 87.454 109.041 87.454 109.642V111.126L86.9112 111.021C87.1305 110.63 87.4431 110.212 87.8543 109.762C88.2656 109.313 88.7481 108.895 89.3074 108.503C89.8612 108.111 90.4918 107.792 91.1937 107.552C91.8846 107.311 92.6468 107.191 93.4693 107.191Z" fill="#333333"/>
<path d="M94.4509 79.252H88.984V59.3593C88.984 58.7061 88.4905 58.1209 87.8106 58.0425C86.9936 57.9485 86.3027 58.5546 86.3027 59.3123V79.2572H74.497V35.2812H86.3027V53.2509C86.3027 53.9041 86.7962 54.4893 87.4761 54.5677C88.2931 54.6618 88.984 54.0556 88.984 53.298V34.001C88.984 33.2955 88.3809 32.7208 87.6406 32.7208H73.1536C72.4133 32.7208 71.8101 33.2955 71.8101 34.001V79.252H68.7724V40.9872C68.7724 40.2818 68.1692 39.707 67.4289 39.707H52.9529C52.2126 39.707 51.6094 40.2818 51.6094 40.9872V79.252H48.5717V51.2131C48.5717 50.5077 47.9685 49.9329 47.2282 49.9329H32.7412C32.001 49.9329 31.3978 50.5077 31.3978 51.2131V79.252H28.36V59.5683C28.36 58.8629 27.7568 58.2881 27.0166 58.2881H12.3486C11.6083 58.2881 11.0052 58.8629 11.0052 59.5683V79.252H5.54923C4.80898 79.252 4.20581 79.8267 4.20581 80.5322V85.9874C4.20581 86.6928 4.80898 87.2676 5.54923 87.2676H19.9869C20.6723 87.2676 21.2865 86.7973 21.3687 86.1493C21.4674 85.3708 20.8314 84.7124 20.0363 84.7124H6.89814V81.8176H93.102V84.7124H26.3531C25.6677 84.7124 25.0535 85.1827 24.9713 85.8306C24.8726 86.6092 25.5087 87.2676 26.3037 87.2676H94.4454C95.1857 87.2676 95.7889 86.6928 95.7889 85.9874V80.5217C95.7834 79.8215 95.1912 79.252 94.4509 79.252ZM54.2908 42.2674H66.0965V79.252H54.2908V42.2674ZM34.0791 52.4933H45.8848V79.252H34.0791V52.4933ZM13.692 60.8433H25.4977V79.252H13.692V60.8433Z" fill="#333333"/>
<path d="M12.3486 46.6984H32.7466C33.931 46.6984 35.0661 46.2229 35.8667 45.3921L52.4812 28.1225H63.5467C64.6707 28.1225 65.7455 27.6993 66.5406 26.9416L80.408 13.7268V17.813C80.408 18.5184 81.0112 19.0932 81.7514 19.0932H87.6515C88.3918 19.0932 88.9949 18.5184 88.9949 17.813V4.03392C88.9949 1.80795 87.0977 0 84.7618 0H70.2967C69.5564 0 68.9533 0.574782 68.9533 1.2802V6.90261C68.9533 7.60802 69.5564 8.1828 70.2967 8.1828H74.5463L62.0278 20.1121H50.5566C49.3722 20.1121 48.2371 20.5876 47.442 21.4185L30.8275 38.688H27.1701C26.4846 38.688 25.8705 39.1583 25.7883 39.8063C25.6896 40.5848 26.3256 41.2432 27.1207 41.2432H31.4197C31.7925 41.2432 32.1544 41.0917 32.4067 40.8304L49.416 23.148C49.7067 22.845 50.1234 22.6725 50.5566 22.6725H62.5432C62.8996 22.6725 63.2396 22.5367 63.4918 22.2963L78.6698 7.83271C78.9494 7.56622 79.1139 7.19522 79.0865 6.819C79.0262 6.11881 78.4285 5.62764 77.7431 5.62764H71.6401V2.7276H84.7563C85.6117 2.7276 86.3026 3.38599 86.3026 4.20113V16.5328H83.2648V10.8163C83.2648 10.4401 83.1113 10.0639 82.8097 9.82354C82.2504 9.36894 81.4608 9.4212 80.9783 9.88102L64.9504 25.1389C64.6598 25.4158 64.265 25.5726 63.8592 25.5726H51.9329C51.5546 25.5726 51.1981 25.7241 50.9459 25.9854L33.9146 43.6625C33.624 43.9656 33.2072 44.138 32.7741 44.138H13.692V41.2432H20.8916C21.577 41.2432 22.1912 40.7729 22.2734 40.125C22.3721 39.3464 21.7361 38.688 20.941 38.688H12.3486C11.6083 38.688 11.0051 39.2628 11.0051 39.9682V45.4234C11.0106 46.1289 11.6083 46.6984 12.3486 46.6984Z" fill="#333333"/>
</svg>
