<svg width="95" height="95" viewBox="0 0 95 95" fill="none" xmlns="http://www.w3.org/2000/svg">
<g filter="url(#filter0_d_2759_1300)">
<path d="M78.2592 12.7408C70.0432 4.52483 59.1191 0 47.5 0C35.8803 0 24.9568 4.52483 16.7408 12.7408C8.52483 20.9568 4 31.8803 4 43.5C4 55.1191 8.52483 66.0432 16.7408 74.2592C24.9568 82.4752 35.8803 87 47.5 87C59.1191 87 70.0432 82.4752 78.2592 74.2592C86.4752 66.0432 91 55.1191 91 43.5C91 31.8803 86.4752 20.9568 78.2592 12.7408V12.7408ZM25.8077 75.1712C27.6271 64.6958 36.7047 56.969 47.5 56.969C58.296 56.969 67.3729 64.6958 69.1923 75.1712C63.016 79.4146 55.5434 81.9023 47.5 81.9023C39.4566 81.9023 31.984 79.4146 25.8077 75.1712ZM33.6686 38.0399C33.6686 30.4127 39.8734 24.2086 47.5 24.2086C55.1266 24.2086 61.3314 30.4134 61.3314 38.0399C61.3314 45.6665 55.1266 51.8713 47.5 51.8713C39.8734 51.8713 33.6686 45.6665 33.6686 38.0399V38.0399ZM73.6076 71.6353C72.2356 66.7587 69.5109 62.3341 65.6916 58.8779C63.3485 56.7572 60.6816 55.0839 57.8141 53.9044C62.9967 50.5239 66.4297 44.6755 66.4297 38.0399C66.4297 27.6023 57.9376 19.1109 47.5 19.1109C37.0624 19.1109 28.571 27.6023 28.571 38.0399C28.571 44.6755 32.0039 50.5239 37.1859 53.9044C34.3191 55.0839 31.6515 56.7566 29.3084 58.8773C25.4898 62.3335 22.7644 66.7581 21.3924 71.6347C13.8356 64.6168 9.09766 54.602 9.09766 43.5C9.09766 22.3248 26.3248 5.09766 47.5 5.09766C68.6752 5.09766 85.9023 22.3248 85.9023 43.5C85.9023 54.6027 81.1644 64.6174 73.6076 71.6353V71.6353Z" fill="black"/>
<path d="M25.3151 75.0856L25.2602 75.4016L25.5246 75.5833C31.7812 79.8819 39.3519 82.4023 47.5 82.4023C55.6481 82.4023 63.2188 79.8819 69.4754 75.5833L69.7398 75.4016L69.6849 75.0856C67.824 64.3714 58.5399 56.469 47.5 56.469C36.4608 56.469 27.176 64.3714 25.3151 75.0856ZM65.3561 59.2486L65.3561 59.2487C69.1054 62.6416 71.7797 66.9846 73.1263 71.7708L73.6076 71.6353L73.9478 72.0017C81.6019 64.8936 86.4023 54.748 86.4023 43.5C86.4023 22.0487 68.9513 4.59766 47.5 4.59766C26.0487 4.59766 8.59766 22.0487 8.59766 43.5C8.59766 54.7473 13.3981 64.8929 21.0522 72.0011L21.652 72.5581L21.8737 71.7701C23.2203 66.9839 25.8952 62.6409 29.6439 59.248C31.9439 57.1663 34.5623 55.5245 37.3761 54.3668L38.2553 54.0051L37.4591 53.4856C32.4121 50.1932 29.071 44.4989 29.071 38.0399C29.071 27.8785 37.3386 19.6109 47.5 19.6109C57.6615 19.6109 65.9297 27.8785 65.9297 38.0399C65.9297 44.4989 62.5886 50.1931 57.541 53.4856L56.7446 54.0051L57.6239 54.3668C60.4383 55.5245 63.056 57.1669 65.3561 59.2486ZM47.5 0.5C58.9865 0.5 69.7834 4.97216 77.9056 13.0944C86.0278 21.2166 90.5 32.0129 90.5 43.5C90.5 54.9865 86.0278 65.7834 77.9056 73.9056C69.7834 82.0278 58.9865 86.5 47.5 86.5C36.0129 86.5 25.2166 82.0278 17.0944 73.9056C8.97216 65.7834 4.5 54.9865 4.5 43.5C4.5 32.0129 8.97215 21.2166 17.0944 13.0944C25.2166 4.97215 36.0129 0.5 47.5 0.5ZM47.5 23.7086C39.5973 23.7086 33.1686 30.1365 33.1686 38.0399C33.1686 45.9426 39.5973 52.3713 47.5 52.3713C55.4027 52.3713 61.8314 45.9426 61.8314 38.0399C61.8314 30.1372 55.4027 23.7086 47.5 23.7086Z" stroke="black"/>
</g>
<defs>
<filter id="filter0_d_2759_1300" x="0" y="0" width="95" height="95" filterUnits="userSpaceOnUse" color-interpolation-filters="sRGB">
<feFlood flood-opacity="0" result="BackgroundImageFix"/>
<feColorMatrix in="SourceAlpha" type="matrix" values="0 0 0 0 0 0 0 0 0 0 0 0 0 0 0 0 0 0 127 0" result="hardAlpha"/>
<feOffset dy="4"/>
<feGaussianBlur stdDeviation="2"/>
<feComposite in2="hardAlpha" operator="out"/>
<feColorMatrix type="matrix" values="0 0 0 0 0 0 0 0 0 0 0 0 0 0 0 0 0 0 0.25 0"/>
<feBlend mode="normal" in2="BackgroundImageFix" result="effect1_dropShadow_2759_1300"/>
<feBlend mode="normal" in="SourceGraphic" in2="effect1_dropShadow_2759_1300" result="shape"/>
</filter>
</defs>
</svg>
