<svg width="109" height="110" viewBox="0 0 109 110" fill="none" xmlns="http://www.w3.org/2000/svg">
<path d="M54.5 0.996094C24.4487 0.996094 0 25.4448 0 55.4961C0 85.5474 24.4487 109.996 54.5 109.996C84.5513 109.996 109 85.5474 109 55.4961C109 25.4448 84.5516 0.996094 54.5 0.996094ZM54.5 104.104C41.1484 104.104 29.0382 98.6923 20.2444 89.9487C16.7328 86.4569 13.7519 82.4327 11.4308 78.0101C7.89598 71.2752 5.89197 63.6156 5.89197 55.4961C5.89197 28.6935 27.6974 6.88807 54.5 6.88807C67.213 6.88807 78.7996 11.7961 87.4704 19.8143C91.9659 23.9711 95.6783 28.9631 98.355 34.5428C101.4 40.891 103.108 47.9978 103.108 55.4961C103.108 82.2987 81.3026 104.104 54.5 104.104ZM33.9274 102.778C34.0158 102.816 34.1042 102.856 34.1933 102.894C34.1042 102.855 34.0158 102.816 33.9274 102.778Z" fill="#E94E1B"/>
<path d="M36.2714 49.604C39.5254 49.604 42.1633 46.9661 42.1633 43.712C42.1633 40.458 39.5254 37.8201 36.2714 37.8201C33.0173 37.8201 30.3794 40.458 30.3794 43.712C30.3794 46.9661 33.0173 49.604 36.2714 49.604Z" fill="#E94E1B"/>
<path d="M72.7279 49.604C75.982 49.604 78.6199 46.9661 78.6199 43.712C78.6199 40.458 75.982 37.8201 72.7279 37.8201C69.4739 37.8201 66.8359 40.458 66.8359 43.712C66.8359 46.9661 69.4739 49.604 72.7279 49.604Z" fill="#E94E1B"/>
<path d="M86.7465 28.9951L68.0874 20.9141L65.7459 26.3205L84.405 34.4015L86.7465 28.9951Z" fill="#E94E1B"/>
<path d="M24.5927 34.4038L43.2515 26.323L40.91 20.9165L22.2512 28.9974L24.5927 34.4038Z" fill="#E94E1B"/>
<path d="M78.8964 75.6705C79.3486 76.4718 79.7647 77.3048 80.1348 78.1466L85.5289 75.7765C85.0803 74.7561 84.5755 73.7464 84.0283 72.776C77.7599 61.659 65.466 54.9005 52.722 55.5627C40.0605 56.2178 28.5786 64.152 23.4702 75.7765L28.8643 78.1473C33.0848 68.5434 42.5687 61.9882 53.0262 61.4469C63.5529 60.9008 73.7166 66.4842 78.8964 75.6705Z" fill="#E94E1B"/>
</svg>
