<svg width="166" height="166" viewBox="0 0 166 166" fill="none" xmlns="http://www.w3.org/2000/svg">
<path d="M14.5898 97.2682C6.54517 97.2682 0 90.723 0 82.6783C0 74.6336 6.54517 68.0885 14.5898 68.0885C22.6358 68.0885 29.181 74.6336 29.181 82.6783C29.181 90.723 22.6358 97.2682 14.5898 97.2682ZM76.8424 32.4231C67.9036 32.4231 60.6302 25.151 60.6302 16.2109C60.6302 7.27213 67.9036 0 76.8424 0C85.7812 0 93.0533 7.27213 93.0533 16.2109C93.0533 25.151 85.7812 32.4231 76.8424 32.4231ZM76.8424 12.9688C75.0541 12.9688 73.6002 14.4239 73.6002 16.2109C73.6002 17.9992 75.0541 19.4531 76.8424 19.4531C78.6294 19.4531 80.0846 17.9992 80.0846 16.2109C80.0846 14.4239 78.6294 12.9688 76.8424 12.9688ZM32.5853 52.5247C28.3843 52.5247 24.4355 50.8897 21.4656 47.9185C18.4957 44.9486 16.8594 40.9997 16.8594 36.8001C16.8594 32.5992 18.4957 28.6503 21.4656 25.6804C24.4355 22.7105 28.3843 21.0742 32.5853 21.0742C36.7849 21.0742 40.7338 22.7105 43.7049 25.6804H43.7037H43.7049C46.6748 28.6503 48.3099 32.5992 48.3099 36.8001C48.3099 40.9997 46.6748 44.9486 43.7037 47.9198C40.7338 50.8897 36.7849 52.5247 32.5853 52.5247ZM32.5853 34.0442C32.1584 34.0442 31.339 34.1481 30.6361 34.851C29.9332 35.5539 29.8294 36.3733 29.8294 36.8001C29.8294 37.2269 29.9332 38.0463 30.6361 38.7479C31.339 39.4508 32.1584 39.556 32.5853 39.556C33.0108 39.556 33.8315 39.4508 34.5331 38.7492C35.236 38.0463 35.3411 37.2269 35.3411 36.8001C35.3411 36.3733 35.236 35.5539 34.5344 34.851H34.5331C33.8315 34.1481 33.0108 34.0442 32.5853 34.0442ZM124.017 53.1731C119.211 53.1731 114.692 51.3013 111.293 47.9033C107.894 44.5041 106.022 39.9853 106.022 35.179C106.022 30.3727 107.894 25.8539 111.293 22.4547C114.692 19.0555 119.211 17.1836 124.017 17.1836C128.824 17.1836 133.343 19.0555 136.742 22.4547C140.14 25.8539 142.012 30.3727 142.012 35.179C142.012 39.9853 140.14 44.5041 136.742 47.9033C133.343 51.3013 128.824 53.1731 124.017 53.1731ZM124.017 30.1536C122.675 30.1536 121.414 30.6754 120.464 31.6253C119.515 32.5751 118.992 33.8365 118.992 35.179C118.992 36.5215 119.514 37.7829 120.464 38.7315C121.414 39.6813 122.675 40.2044 124.017 40.2044C125.36 40.2044 126.621 39.6813 127.57 38.7327C128.52 37.7829 129.043 36.5215 129.043 35.179C129.043 33.8365 128.52 32.5751 127.57 31.6253C126.621 30.6754 125.36 30.1536 124.017 30.1536ZM144.93 103.419C139.533 103.419 134.137 101.365 130.028 97.2568C121.81 89.0398 121.81 75.6684 130.028 67.4514C138.245 59.2345 151.615 59.2345 159.832 67.4514C168.049 75.6684 168.049 89.0398 159.832 97.2568C155.724 101.365 150.327 103.419 144.93 103.419ZM144.93 74.2524C142.854 74.2524 140.778 75.0427 139.199 76.622C136.038 79.7831 136.038 84.925 139.199 88.0862C142.359 91.246 147.501 91.246 150.662 88.0862C153.822 84.925 153.822 79.7831 150.662 76.622C149.081 75.0427 147.005 74.2524 144.93 74.2524ZM124.18 157.24C118.45 157.24 112.722 155.06 108.36 150.698C99.6377 141.976 99.6377 127.783 108.36 119.06C117.082 110.337 131.276 110.337 139.998 119.06C148.721 127.783 148.721 141.976 139.998 150.698C135.637 155.06 129.908 157.24 124.18 157.24ZM124.18 125.48C121.772 125.48 119.364 126.397 117.531 128.23C113.865 131.896 113.865 137.861 117.531 141.528C121.197 145.194 127.162 145.194 130.829 141.528C134.494 137.861 134.494 131.896 130.829 128.23C128.995 126.397 126.587 125.48 124.18 125.48ZM29.9902 142.329C26.3795 142.329 22.7675 140.954 20.018 138.206C14.5189 132.706 14.5189 123.758 20.018 118.259C25.517 112.76 34.4647 112.76 39.9638 118.259C45.4628 123.758 45.4628 132.706 39.9638 138.205C37.2142 140.954 33.6022 142.329 29.9902 142.329ZM68.0872 166C65.596 166 63.1061 165.053 61.2102 163.157C57.4171 159.364 57.4171 153.192 61.209 149.4L61.2102 149.399C65.0021 145.607 71.1736 145.607 74.9655 149.399C78.7586 153.192 78.7586 159.364 74.9667 163.155C73.0695 165.051 70.5784 166 68.0872 166Z" fill="url(#paint0_linear_2759_1384)"/>
<defs>
<linearGradient id="paint0_linear_2759_1384" x1="82.9974" y1="0" x2="82.9974" y2="166" gradientUnits="userSpaceOnUse">
<stop stop-color="#F9B233"/>
<stop offset="1" stop-color="#E94E1B"/>
</linearGradient>
</defs>
</svg>
