<svg width="25" height="25" viewBox="0 0 25 25" fill="none" xmlns="http://www.w3.org/2000/svg">
<g clip-path="url(#clip0_2759_728)">
<path d="M25 20.1427C25.033 21.1119 24.6971 22.037 24.0528 22.7584L24.0253 22.7859C24.0143 22.7969 24.0033 22.8134 23.9868 22.8244C22.5661 24.2451 20.5782 24.9995 18.2379 24.9995C18.2213 24.9995 18.1993 24.9995 18.1828 24.9995C16.4592 24.9885 14.5815 24.5535 12.5991 23.7C12.1035 23.4852 11.8777 22.9125 12.087 22.4169C12.3017 21.9213 12.8744 21.6956 13.37 21.9048C15.0826 22.6427 16.7511 23.0392 18.1883 23.0447C18.2048 23.0447 18.2158 23.0447 18.2324 23.0447C20.033 23.0447 21.5363 22.4995 22.5826 21.4588L22.5881 21.4533C23.2269 20.7429 23.1883 19.6691 22.5 19.0084C19.8788 16.4808 18.6399 16.6625 17.4945 17.7804L15.6718 19.5921C15.3854 19.8784 14.9559 19.9555 14.587 19.7903C14.4824 19.7462 12.0264 18.6339 9.25659 15.8641L9.12994 15.7374C6.36011 12.9676 5.24778 10.5117 5.20373 10.407C5.03853 10.0381 5.12113 9.60857 5.40197 9.32223L7.21364 7.49954C8.33148 6.35416 8.5132 5.11518 5.98567 2.49403C5.32487 1.80571 4.25108 1.76716 3.54073 2.40593L3.53522 2.41143C2.48897 3.4687 1.94381 4.98853 1.94932 6.80571C1.96584 10.3134 3.95373 14.3883 7.2687 17.7088C7.27421 17.7143 7.27421 17.7143 7.27972 17.7198C7.91298 18.3531 8.63434 18.9808 9.4273 19.5921C9.85681 19.9224 9.9339 20.5337 9.60901 20.9632C9.27862 21.3927 8.66738 21.4698 8.23787 21.1449C7.37884 20.4896 6.5969 19.8068 5.90857 19.113C5.90307 19.1075 5.90307 19.1075 5.89756 19.102C2.22465 15.4235 0.0220088 10.831 -1.7593e-05 6.81672C-0.0110308 4.45438 0.737868 2.44447 2.17509 1.01275C2.18611 1.00174 2.20263 0.990728 2.21364 0.974209L2.24117 0.946676C2.95703 0.302402 3.88765 -0.0335006 4.85681 -0.000460999C5.82597 0.0325786 6.72355 0.434561 7.39536 1.1339C8.71144 2.49954 9.47135 3.63941 9.78522 4.72972C10.2202 6.23302 9.82377 7.62068 8.61232 8.86518L8.60681 8.87068L7.29624 10.1923C7.75879 11.0183 8.78302 12.6207 10.5176 14.3553L10.6443 14.4819C12.3899 16.2275 13.9868 17.2407 14.8073 17.7033L16.1288 16.3927L16.1343 16.3872C17.3733 15.1758 18.7665 14.7793 20.2698 15.2143C21.3601 15.5282 22.5 16.2881 23.8656 17.6042C24.5595 18.276 24.9614 19.1791 25 20.1427Z" fill="#E94E1B"/>
</g>
<defs>
<clipPath id="clip0_2759_728">
<rect width="25" height="25" fill="white"/>
</clipPath>
</defs>
</svg>
