<svg width="25" height="25" viewBox="0 0 25 25" fill="none" xmlns="http://www.w3.org/2000/svg">
<path d="M23.933 17.2002C24.5132 17.2508 25 16.7952 25 16.2266V9.4081C25 8.06854 24.3263 6.8419 23.2009 6.1176L20.8489 4.61059V0.977414C20.8489 0.440031 20.4128 0 19.8715 0H5.12851C4.59112 0 4.15109 0.436137 4.15109 0.977414V4.61059L1.80296 6.11371C0.673676 6.83411 0 8.06464 0 9.40421V21.0942C0 23.2516 1.74844 25 3.90576 25H21.0942C23.2321 25 24.9766 23.2749 25 21.141C25.0078 20.6192 24.5989 20.148 24.081 20.1207C23.5203 20.0896 23.053 20.5296 23.0491 21.0826C23.0374 22.1651 22.1807 23.0491 21.0942 23.0491H3.90576C2.8271 23.0491 1.95093 22.1729 1.95093 21.0942V10.6737L10.4361 15.9502C11.0709 16.3474 11.7874 16.5421 12.5 16.5421C13.2126 16.5421 13.9252 16.3435 14.5639 15.9502L23.0491 10.6737V16.2033C23.0452 16.7134 23.4268 17.1534 23.933 17.2002ZM22.1456 7.78037C22.4416 7.96729 22.6713 8.22819 22.8271 8.52804L20.8489 9.75857V6.95093L22.1456 7.78037ZM2.85436 7.77259L4.15109 6.94315V9.75467L2.169 8.52414C2.32477 8.2243 2.55841 7.9634 2.85436 7.77259ZM13.5319 14.2913C12.8972 14.6885 12.1067 14.6885 11.4681 14.2913L6.10203 10.9541V1.95483H18.8941V10.9579L13.5319 14.2913Z" fill="#E94E1B"/>
</svg>
