<svg width="112" height="148" viewBox="0 0 112 148" fill="none" xmlns="http://www.w3.org/2000/svg">
<path d="M25.1578 99.0653C25.6125 98.6925 26.6856 98.5788 26.4538 99.8928L25.9991 100.448C25.741 100.844 25.516 101.26 25.3261 101.693C20.6065 112.542 21.093 120.968 29.7457 129.961C36.1386 136.609 44.2411 139.255 53.0348 140.392C60.5282 141.339 68.1365 140.719 75.3781 138.573C76.7457 138.11 78.0874 137.574 79.3976 136.968C79.9296 136.75 83.9035 134.767 85.595 133.331C92.5335 127.42 95.8028 119.69 96.2074 110.751C96.5439 103.398 93.6567 97.1101 88.8597 91.713C85.4401 87.7711 81.3288 84.4873 76.7286 82.0236C75.2781 81.2643 75.2554 80.5686 76.2739 79.3818C81.4118 73.3754 85.936 66.9234 90.2919 60.3304C96.9032 50.4749 101.051 39.1759 102.387 27.3837C102.819 23.5643 102.91 19.6858 101.996 15.8755C100.022 7.66382 93.3566 5.77688 86.6817 7.59563C80.9981 9.15521 76.9878 13.0519 73.3639 17.5124C68.0668 24.0235 65.9252 31.7351 64.5293 39.7921C62.7424 50.0635 61.8012 60.3941 62.2559 70.8337C62.3241 72.3751 62.4878 73.9074 62.606 75.4488C62.7106 76.8674 62.1149 77.1493 60.7099 76.781C54.0086 75.06 47.4274 72.9017 41.0083 70.3199C31.9737 66.6278 23.2755 62.3128 15.5458 56.27C9.94403 51.8959 4.90599 46.9762 2.0369 40.3559C-1.20048 32.8718 -0.691164 25.5922 4.37406 19.0402C7.4523 15.0389 11.8263 13.6612 16.8097 14.2841C23.3118 15.1025 28.6317 18.2672 32.9422 23.005C38.1802 28.7523 42.3542 35.2088 44.7322 42.7021C44.9823 43.4887 45.4324 44.2662 45.0778 45.4302C43.4545 42.9022 42.0041 40.5242 40.44 38.2234C36.3023 32.1306 31.8736 26.2788 25.7353 22.0002C22.9799 20.0814 19.9971 18.5718 16.5051 19.0902C11.258 19.8722 7.2386 25.6831 8.00702 31.0621C8.6936 35.8318 11.0261 39.8012 13.8861 43.5297C20.8565 52.6234 30.0957 58.6526 40.358 63.345C44.5321 65.2546 48.6607 67.2644 52.953 68.9013C55.0491 69.7015 55.1627 69.6515 55.1445 67.4826C55.09 60.9306 55.1445 54.374 55.9311 47.8674C57.3634 36.1455 60.3098 24.8511 67.0028 14.9434C71.6361 8.08671 77.7198 2.86687 85.9724 0.711643C97.1714 -2.20746 107.37 4.08545 109.98 15.3435C112.34 25.5331 110.607 35.2771 107.084 44.8574C103.337 55.0378 96.9713 63.6405 90.5193 72.1796C89.7009 73.2617 88.3459 75.0214 87.4456 76.0399C86.659 76.9492 86.659 77.4949 87.7957 78.2178C93.2974 81.7235 97.3442 86.575 100.3 92.3132C102.527 96.6862 103.915 101.438 104.392 106.322C105.265 114.506 104.16 122.313 100.077 129.57C96.9577 135.118 92.4017 139.192 86.8909 142.261C80.3843 145.898 73.2047 147.085 65.9434 147.717C54.9626 148.654 44.3003 147.39 34.4108 142.056C27.6951 138.419 22.4616 133.417 19.4061 126.292C16.2233 118.935 16.6461 111.742 20.3155 104.708C22.7435 101.066 21.0293 102.585 25.1578 99.0653Z" fill="#E94E1B"/>
<path d="M43.1226 108.781C43.1817 111.509 42.7907 114.146 41.4221 116.561C39.7352 119.534 37.0071 119.598 35.3884 116.561C33.4105 112.859 33.1149 108.876 34.0243 104.802C34.379 103.184 34.7563 101.583 35.8112 100.255C37.2026 98.4821 39.1305 98.3321 40.6583 100.01C42.7316 102.283 43.018 105.157 43.109 108.062C43.1226 108.294 43.1226 108.535 43.1226 108.781Z" fill="#E94E1B"/>
<path d="M77.5714 108.562C77.3895 111.172 77.1394 113.732 75.9617 116.083C75.2888 117.447 74.4567 118.715 72.7789 118.761C71.1011 118.806 70.119 117.629 69.4915 116.233C67.2999 111.336 67.3409 106.384 69.4143 101.473C69.9872 100.109 70.9283 98.8954 72.6288 98.8272C74.3294 98.759 75.1978 99.9821 75.9162 101.328C77.1257 103.606 77.3213 106.107 77.5714 108.562Z" fill="#E94E1B"/>
<path d="M53.5282 124.65H56.711C57.0031 124.65 57.2902 124.726 57.5432 124.873C57.7962 125.019 58.0062 125.229 58.1523 125.482C58.2984 125.735 58.3753 126.022 58.3753 126.314C58.3753 126.606 58.2985 126.893 58.1524 127.146L56.5519 129.91L54.9559 132.679C54.8099 132.932 54.5999 133.143 54.3468 133.289C54.0938 133.435 53.8068 133.512 53.5146 133.512C53.2224 133.512 52.9354 133.435 52.6824 133.289C52.4294 133.143 52.2192 132.932 52.0732 132.679L50.4727 129.91L48.8767 127.146C48.7306 126.893 48.6538 126.606 48.6538 126.314C48.6538 126.022 48.7307 125.735 48.8768 125.482C49.0229 125.229 49.233 125.019 49.486 124.873C49.739 124.726 50.026 124.65 50.3181 124.65H53.5282Z" fill="#E94E1B"/>
<path d="M90.815 44.101C95.4819 30.9073 95.5574 18.9002 90.9835 17.2823C86.4097 15.6644 78.9185 25.0484 74.2515 38.2421C69.5846 51.4358 69.5092 63.4429 74.083 65.0608C78.6569 66.6787 86.148 57.2947 90.815 44.101Z" fill="#E94E1B"/>
</svg>
