<svg width="28" height="32" viewBox="0 0 28 32" fill="none" xmlns="http://www.w3.org/2000/svg">
<path d="M26.3835 7.26799C23.0498 7.26799 20.3382 4.56701 20.3329 1.23864C20.3329 0.563399 19.7853 0.00512695 19.11 0.00512695H14.4737C14.3036 0.00512695 14.1387 0.0423451 13.9952 0.100831C13.5539 0.286922 13.2455 0.717589 13.2455 1.22801V21.1929C13.2402 22.5009 12.3948 23.6599 11.1453 24.0693C10.8316 24.1757 10.5126 24.2235 10.1776 24.2235C8.48687 24.2235 7.11512 22.8571 7.11512 21.1823C7.11512 19.5075 8.48687 18.141 10.1776 18.141C10.8529 18.141 11.4112 17.5934 11.4112 16.9181V12.2127C11.4112 11.5374 10.8582 10.9898 10.183 10.9898C7.46604 10.9898 4.90862 12.0479 2.98922 13.9726C1.07515 15.892 0.0170898 18.4441 0.0170898 21.1663C0.0170898 23.8886 1.06983 26.4407 2.99454 28.3654C4.91393 30.2848 7.47135 31.3481 10.1936 31.3481C10.704 31.3481 11.2197 31.3109 11.7195 31.2365C13.8622 30.9122 15.8135 29.9339 17.3661 28.3973C17.8074 27.9613 17.8818 27.2595 17.5043 26.765C17.0471 26.1589 16.1751 26.1163 15.654 26.6321C14.4737 27.8124 12.9903 28.5674 11.358 28.812C10.9752 28.8652 10.587 28.8971 10.1936 28.8971C8.13064 28.8971 6.1953 28.0942 4.73316 26.6321C3.27102 25.1699 2.46817 23.2346 2.46817 21.1716C2.46817 19.1087 3.27102 17.1733 4.73316 15.7112C5.89756 14.5468 7.37033 13.7971 8.96539 13.5472V15.8335C6.51431 16.3918 4.68531 18.5823 4.68531 21.1876C4.68531 24.2182 7.15766 26.6799 10.1883 26.6799C10.7785 26.6799 11.358 26.5895 11.9216 26.3981C14.1653 25.6591 15.6913 23.5695 15.6966 21.2035V2.45621H17.9881C18.5305 6.15144 21.4707 9.09168 25.1872 9.62337V11.8565C24.1664 11.7395 23.1827 11.4843 22.2363 11.0855C21.3963 10.7293 20.5987 10.272 19.881 9.71375C19.3865 9.33094 18.6581 9.37347 18.2115 9.88389C18.0094 10.1178 17.9084 10.4156 17.9084 10.724V21.177C17.9084 21.7884 18.3444 22.3201 18.9452 22.4158C19.7002 22.5274 20.3542 21.9426 20.3542 21.2035V12.9039C20.6572 13.0581 20.9656 13.2016 21.2793 13.3399C22.9009 14.0257 24.6289 14.3713 26.4048 14.3767C27.08 14.3767 27.633 13.829 27.633 13.1538V8.49087C27.6064 7.81031 27.0641 7.26799 26.3835 7.26799Z" fill="#F2F2F2"/>
</svg>
