<svg width="118" height="131" viewBox="0 0 118 131" fill="none" xmlns="http://www.w3.org/2000/svg">
<path d="M109.324 17.514L111.445 23.4786C111.536 23.7339 111.716 23.9362 111.943 24.0386L117.242 26.4261C117.99 26.7636 117.99 27.9563 117.242 28.2935L111.943 30.6811C111.716 30.7832 111.536 30.9857 111.445 31.2411L109.324 37.2056C109.024 38.0482 107.964 38.0482 107.665 37.2056L105.544 31.2411C105.453 30.9857 105.273 30.7835 105.046 30.6811L99.747 28.2935C98.9984 27.9563 98.9984 26.7633 99.747 26.4261L105.046 24.0386C105.273 23.9365 105.453 23.7339 105.544 23.4786L107.665 17.514C107.964 16.6714 109.024 16.6714 109.324 17.514Z" fill="#E94E1B"/>
<path d="M30.0394 0.468818L31.6128 4.89324C31.6801 5.08254 31.8135 5.23272 31.9817 5.30869L35.9127 7.07978C36.4682 7.33007 36.4682 8.21486 35.9127 8.46489L31.9817 10.236C31.8135 10.3117 31.6801 10.4619 31.6128 10.6514L30.0394 15.0759C29.817 15.7009 29.0309 15.7009 28.8085 15.0759L27.2351 10.6514C27.1678 10.4621 27.0344 10.312 26.8662 10.236L22.9352 8.46489C22.38 8.2146 22.38 7.32982 22.9352 7.07978L26.8662 5.30869C27.0344 5.23297 27.1678 5.0828 27.2351 4.89324L28.8085 0.468818C29.0309 -0.156273 29.817 -0.156273 30.0394 0.468818Z" fill="#E94E1B"/>
<path d="M94.2878 9.70714C94.2878 11.4284 92.8925 12.8237 91.1713 12.8237C89.45 12.8237 88.0544 11.4282 88.0544 9.70714C88.0544 7.98586 89.4497 6.59033 91.1713 6.59033C92.8925 6.59033 94.2878 7.9856 94.2878 9.70714Z" fill="#E94E1B"/>
<path d="M9.20763 27.0682C9.20763 29.6107 7.14636 31.672 4.60382 31.672C2.06127 31.672 0 29.6107 0 27.0682C0 24.5256 2.06127 22.4644 4.60382 22.4644C7.14636 22.4646 9.20763 24.5256 9.20763 27.0682Z" fill="#E94E1B"/>
<path d="M56.745 130.1C27.722 130.1 4.11035 106.488 4.11035 77.4655C4.11035 48.4427 27.722 24.8308 56.745 24.8308C85.768 24.8308 109.38 48.4427 109.38 77.4655C109.379 106.488 85.7677 130.1 56.745 130.1ZM56.745 29.9413C30.54 29.9413 9.2211 51.2604 9.2211 77.4652C9.2211 103.67 30.5402 124.989 56.745 124.989C82.9498 124.989 104.269 103.67 104.269 77.4655C104.269 51.2607 82.9498 29.9413 56.745 29.9413Z" fill="#E94E1B"/>
<path d="M44.9065 65.6824C43.4954 65.6824 42.3512 64.5384 42.3512 63.1271C42.3512 59.2053 39.1607 56.0148 35.2392 56.0148C31.3174 56.0148 28.1269 59.2053 28.1269 63.1271C28.1269 64.5384 26.9826 65.6824 25.5716 65.6824C24.1606 65.6824 23.0164 64.5384 23.0164 63.1271C23.0164 56.3873 28.4996 50.9043 35.2394 50.9043C41.979 50.9043 47.4622 56.3876 47.4622 63.1271C47.4617 64.5384 46.3175 65.6824 44.9065 65.6824Z" fill="#E94E1B"/>
<path d="M87.9187 65.6824C86.5076 65.6824 85.3634 64.5384 85.3634 63.1271C85.3634 59.2053 82.1729 56.0148 78.2511 56.0148C74.3296 56.0148 71.1391 59.2053 71.1391 63.1271C71.1391 64.5384 69.9948 65.6824 68.5838 65.6824C67.1728 65.6824 66.0286 64.5384 66.0286 63.1271C66.0286 56.3873 71.5118 50.9043 78.2514 50.9043C84.9912 50.9043 90.4744 56.3876 90.4744 63.1271C90.4739 64.5384 89.3297 65.6824 87.9187 65.6824Z" fill="#E94E1B"/>
<path d="M90.7525 75.8582H22.7376C21.3266 75.8582 20.1824 77.0021 20.1824 78.4134C20.1824 98.5741 36.5844 114.976 56.7451 114.976C76.9058 114.976 93.3078 98.5741 93.3078 78.4134C93.3078 77.0024 92.1636 75.8582 90.7525 75.8582ZM37.3335 103.142C40.821 97.5516 48.3437 93.9062 56.7451 93.9062C65.1462 93.9062 72.6689 97.5516 76.1567 103.142C70.8068 107.351 64.0645 109.866 56.7451 109.866C49.4257 109.866 42.6833 107.351 37.3335 103.142ZM79.9458 99.6243C75.3408 93.0352 66.4838 88.7957 56.7448 88.7957C47.0056 88.7957 38.1479 93.0347 33.5433 99.6238C28.9618 94.6165 25.9739 88.128 25.3953 80.9689H88.0941C87.5158 88.1282 84.5278 94.617 79.9458 99.6243Z" fill="#E94E1B"/>
</svg>
