<svg width="33" height="32" viewBox="0 0 33 32" fill="none" xmlns="http://www.w3.org/2000/svg">
<path d="M16.6566 31.3376C16.5503 31.3376 16.4493 31.3376 16.3429 31.3376C13.8865 31.3429 11.6162 31.2791 9.40971 31.1462C7.38398 31.0239 5.53902 30.322 4.06625 29.1257C2.64664 27.9667 1.67897 26.4035 1.1845 24.4735C0.753829 22.7933 0.732562 21.1451 0.711294 19.55C0.695344 18.4069 0.679389 17.0511 0.674072 15.674C0.679389 14.2917 0.695344 12.9358 0.711294 11.7927C0.732562 10.1977 0.753829 8.54942 1.1845 6.86928C1.67897 4.93926 2.64664 3.37609 4.06625 2.21701C5.53902 1.0154 7.38398 0.318886 9.40971 0.196597C11.6162 0.0636753 13.8865 -0.000127326 16.3482 0.00518956C18.8046 -0.000127326 21.0749 0.0636753 23.2815 0.196597C25.3072 0.318886 27.1521 1.02071 28.6249 2.21701C30.0445 3.37609 31.0122 4.93926 31.5067 6.86928C31.9373 8.54942 31.9586 10.1977 31.9799 11.7927C31.9958 12.9358 32.0118 14.2917 32.0171 15.6687C32.0118 17.0511 31.9958 18.4069 31.9799 19.55C31.9692 20.2253 31.411 20.7676 30.741 20.757C30.0658 20.7463 29.5235 20.1934 29.5341 19.5181C29.5501 18.3803 29.566 17.0352 29.5713 15.6687C29.566 14.3076 29.5501 12.9624 29.5341 11.8246C29.5128 10.3731 29.4916 8.87375 29.1353 7.47541C28.7738 6.06643 28.0826 4.93394 27.0777 4.11514C25.9931 3.22722 24.6638 2.73275 23.1326 2.63705C20.9792 2.50412 18.7568 2.44564 16.3482 2.45096C13.9344 2.44564 11.7119 2.50412 9.55859 2.63705C8.02732 2.72743 6.70342 3.22722 5.61346 4.11514C4.60857 4.93394 3.91737 6.06643 3.55582 7.47541C3.19959 8.87375 3.17832 10.3731 3.15705 11.8246C3.1411 12.9624 3.12516 14.3076 3.11984 15.674C3.12516 17.0352 3.1411 18.3803 3.15705 19.5181C3.17832 20.9697 3.19959 22.469 3.55582 23.8674C3.91737 25.2763 4.60857 26.4088 5.61346 27.2276C6.6981 28.1155 8.02732 28.61 9.55859 28.7057C11.7119 28.8386 13.9344 28.8971 16.3429 28.8918C18.7568 28.8971 20.9792 28.8386 23.1326 28.7057C24.6638 28.6153 25.9877 28.1155 27.0777 27.2276C27.8008 26.6374 28.3644 25.8825 28.7578 24.9786C29.029 24.3565 29.7468 24.0747 30.3689 24.3406C30.9909 24.6117 31.2727 25.3295 31.0069 25.9516C30.4592 27.217 29.6564 28.2857 28.6249 29.1257C27.1521 30.3274 25.3072 31.0239 23.2815 31.1462C21.1707 31.2738 18.996 31.3376 16.6566 31.3376ZM23.9354 15.6687C23.9354 11.4524 20.506 8.01773 16.2844 8.01773C12.0681 8.01773 8.63344 11.4471 8.63344 15.6687C8.63344 19.8903 12.0681 23.3197 16.2844 23.3197C20.506 23.3197 23.9354 19.885 23.9354 15.6687ZM21.4897 15.6687C21.4897 18.5398 19.1556 20.8686 16.2898 20.8686C13.4186 20.8686 11.0898 18.5345 11.0898 15.6687C11.0898 12.8029 13.424 10.4688 16.2898 10.4688C19.1556 10.4635 21.4897 12.7976 21.4897 15.6687ZM24.7914 5.57196C23.7759 5.57196 22.9571 6.39608 22.9571 7.40629C22.9571 8.4165 23.7812 9.24061 24.7914 9.24061C25.807 9.24061 26.6258 8.4165 26.6258 7.40629C26.6258 6.39608 25.807 5.57196 24.7914 5.57196Z" fill="#F2F2F2"/>
</svg>
