<svg width="32" height="27" viewBox="0 0 32 27" fill="none" xmlns="http://www.w3.org/2000/svg">
<path d="M27.9576 5.00776L27.9417 4.94928C29.2709 4.15174 30.3396 2.84379 30.8181 1.33911C29.574 2.07816 28.1171 2.64175 26.655 2.92886C25.48 1.6794 23.9168 0.908447 22.0665 0.908447C18.5202 0.908447 15.5799 3.77956 15.5799 7.33656C15.5799 7.87888 15.6225 8.41057 15.6863 8.87314C12.56 8.62856 9.62504 7.61835 6.94001 5.84783C4.59527 4.30593 3.32985 2.73745 3.31922 2.7215C2.97362 2.28552 2.37813 2.13665 1.87302 2.35464C1.3626 2.57795 1.06486 3.11495 1.14993 3.66259C1.17651 3.854 1.77732 7.59708 4.03699 10.867C3.51062 10.7872 3.19693 10.6383 3.13844 10.6064C2.70246 10.3459 2.16545 10.3938 1.76669 10.7128C1.36792 11.0318 1.22436 11.5741 1.38387 12.0633C1.43704 12.2228 2.51105 15.3544 6.42959 17.0133C5.58952 17.2579 4.84516 17.2525 4.83453 17.2525C4.82389 17.2525 4.81858 17.2525 4.80794 17.2525C4.29221 17.2525 3.82432 17.5769 3.65418 18.0713C3.47872 18.5711 3.64355 19.1241 4.05826 19.4484C4.15397 19.5228 5.90854 20.8574 8.7637 21.5273C7.76413 22.075 6.5891 22.4099 5.23861 22.5163C3.37239 22.6651 1.86771 22.3142 1.85707 22.3089C1.235 22.1547 0.60229 22.5056 0.400249 23.1171C0.198207 23.7285 0.501267 24.3825 1.09144 24.6271C1.2669 24.7015 5.46724 26.4348 9.64099 26.4348C12.5387 26.4348 14.7133 26.169 16.6805 25.5788C19.1369 24.8397 21.2265 23.5796 23.0608 21.724C23.534 21.2455 23.534 20.4693 23.0502 19.9907C22.5716 19.5175 21.7954 19.5175 21.3169 20.0014C18.047 23.3085 14.2826 23.9837 9.64099 23.9837C9.53465 23.9837 9.423 23.9837 9.31666 23.9784C10.614 23.3829 11.7252 22.5375 12.6078 21.4529C12.9056 21.0913 12.9694 20.5969 12.7726 20.1715C12.5812 19.7462 12.1612 19.4697 11.6933 19.4537C10.4173 19.4165 9.28476 19.1719 8.3543 18.8689C9.0455 18.518 9.71542 18.0182 10.2471 17.311C10.5023 16.9707 10.5608 16.5241 10.4066 16.1307C10.2524 15.7372 9.90151 15.4501 9.48148 15.3757C7.42385 15.0088 6.06273 14.1794 5.17481 13.3659C5.66928 13.3393 6.21692 13.2649 6.80709 13.116C7.23776 13.0097 7.57804 12.6747 7.69501 12.244C7.81198 11.8134 7.68437 11.3561 7.36004 11.0477C6.24882 9.97905 5.44597 8.65514 4.86643 7.40568C5.06847 7.54923 5.27583 7.69279 5.49382 7.84166C7.92363 9.45799 11.9219 11.3827 17.1591 11.3827C17.5419 11.3827 17.8981 11.2072 18.132 10.9042C18.366 10.6011 18.4404 10.2077 18.3447 9.84081C18.3394 9.83018 18.0204 8.62324 18.0204 7.34719C18.0204 6.29445 18.4404 5.30019 19.2061 4.54519C19.9717 3.78488 20.9872 3.37016 22.0612 3.37016C23.1459 3.37016 24.0923 3.7902 24.8685 4.61963C25.4268 5.146 26.0436 6.55498 26.0436 7.40568V8.14472C26.0436 8.17131 26.0436 8.20321 26.0542 8.24574C26.0489 8.2936 26.0436 8.34145 26.0436 8.3893C26.0436 11.17 25.5278 13.6477 24.5123 15.7532C24.2199 16.3646 24.4751 17.093 25.0812 17.3855C25.2514 17.4705 25.4321 17.5078 25.6129 17.5078C26.0702 17.5078 26.5061 17.2525 26.7135 16.8166C27.8885 14.3761 28.4893 11.5422 28.4893 8.3893C28.4893 8.34145 28.484 8.29891 28.4787 8.25106C28.484 8.20853 28.4893 8.17131 28.4893 8.14472V7.2887C29.7494 6.37952 30.8128 5.15132 31.6741 3.85932C31.6795 3.84337 29.4198 4.91206 27.9576 5.00776Z" fill="#F2F2F2"/>
</svg>
