<svg width="100" height="132" viewBox="0 0 100 132" fill="none" xmlns="http://www.w3.org/2000/svg">
<path d="M2.20962 106.088C2.53815 106.088 2.88258 106.179 3.2429 106.353C3.60322 106.528 3.87876 106.756 4.06422 107.037L12.5795 120.146L10.8256 120.077L19.5581 107.037C20.0032 106.406 20.5755 106.088 21.2749 106.088C21.8366 106.088 22.34 106.29 22.7798 106.682C23.2249 107.079 23.4474 107.593 23.4474 108.224V128.518C23.4474 129.128 23.2461 129.637 22.854 130.045C22.4565 130.453 21.932 130.659 21.2749 130.659C20.6231 130.659 20.088 130.453 19.6799 130.045C19.2719 129.637 19.0653 129.128 19.0653 128.518V112.007L20.4324 112.325L13.2842 123.225C13.0723 123.485 12.8126 123.702 12.4947 123.893C12.1768 124.078 11.8588 124.163 11.5303 124.136C11.2283 124.158 10.9156 124.078 10.603 123.893C10.2851 123.707 10.0254 123.485 9.81348 123.225L3.12103 112.643L4.03243 110.783V128.518C4.03243 129.128 3.84697 129.637 3.47075 130.045C3.09453 130.453 2.60704 130.659 1.99767 130.659C1.41479 130.659 0.932598 130.453 0.561679 130.045C0.18546 129.637 0 129.128 0 128.524V108.229C0 107.646 0.217253 107.143 0.64646 106.724C1.08097 106.3 1.60025 106.088 2.20962 106.088Z" fill="#F2F2F2"/>
<path d="M30.1771 109.628C29.3823 109.628 28.8206 109.501 28.4973 109.242C28.1688 108.987 28.0045 108.532 28.0045 107.875V107.207C28.0045 106.529 28.1847 106.068 28.5503 105.824C28.9107 105.58 29.467 105.458 30.2142 105.458C31.0302 105.458 31.6025 105.585 31.931 105.845C32.2595 106.105 32.4238 106.56 32.4238 107.212V107.88C32.4238 108.558 32.2489 109.019 31.8992 109.263C31.5495 109.507 30.9719 109.628 30.1771 109.628ZM32.3178 128.524C32.3178 129.134 32.1165 129.642 31.7243 130.05C31.3269 130.458 30.8235 130.665 30.2195 130.665C29.6101 130.665 29.1067 130.458 28.7146 130.05C28.3172 129.642 28.1211 129.134 28.1211 128.524V114.048C28.1211 113.438 28.3172 112.93 28.7146 112.522C29.112 112.114 29.6154 111.907 30.2195 111.907C30.8288 111.907 31.3269 112.114 31.7243 112.522C32.1218 112.93 32.3178 113.438 32.3178 114.048V128.524Z" fill="#F2F2F2"/>
<path d="M35.5395 127.75C35.3064 127.422 35.2004 127.003 35.2216 126.489C35.2428 125.975 35.5501 125.53 36.133 125.159C36.5092 124.926 36.9066 124.825 37.3252 124.862C37.7438 124.899 38.1519 125.111 38.5546 125.509C39.2328 126.187 39.9429 126.712 40.69 127.088C41.4371 127.464 42.375 127.65 43.4931 127.65C43.8428 127.628 44.2296 127.575 44.6482 127.491C45.0669 127.411 45.4378 127.22 45.7504 126.929C46.0683 126.637 46.222 126.187 46.222 125.578C46.222 125.064 46.0471 124.656 45.6974 124.348C45.3477 124.046 44.8867 123.787 44.3144 123.575C43.7421 123.363 43.1063 123.167 42.4015 122.981C41.6756 122.769 40.9337 122.536 40.176 122.282C39.4183 122.027 38.7188 121.694 38.0883 121.28C37.4577 120.872 36.9437 120.327 36.5463 119.648C36.1489 118.97 35.9528 118.117 35.9528 117.089C35.9528 115.923 36.2814 114.927 36.9331 114.111C37.5849 113.295 38.4327 112.664 39.4766 112.219C40.5151 111.774 41.6067 111.552 42.7513 111.552C43.4772 111.552 44.2349 111.642 45.0298 111.817C45.8246 111.991 46.5823 112.272 47.3083 112.659C48.0342 113.046 48.6383 113.555 49.1311 114.185C49.3854 114.535 49.5391 114.959 49.5868 115.446C49.6345 115.939 49.4119 116.379 48.9191 116.776C48.5694 117.057 48.1614 117.179 47.6898 117.142C47.2235 117.105 46.8367 116.951 46.5346 116.67C46.1372 116.156 45.6073 115.748 44.9397 115.441C44.272 115.139 43.509 114.985 42.6453 114.985C42.2956 114.985 41.914 115.028 41.506 115.107C41.098 115.187 40.743 115.367 40.4357 115.632C40.1336 115.902 39.98 116.326 39.98 116.909C39.98 117.449 40.1548 117.873 40.5045 118.186C40.8543 118.498 41.3259 118.758 41.9246 118.959C42.5181 119.161 43.1593 119.352 43.8375 119.537C44.537 119.722 45.2523 119.945 45.973 120.205C46.6989 120.464 47.3613 120.798 47.9706 121.222C48.58 121.641 49.0675 122.186 49.4437 122.854C49.8199 123.522 50.0054 124.37 50.0054 125.398C50.0054 126.59 49.6557 127.607 48.9562 128.444C48.2568 129.287 47.3772 129.923 46.328 130.352C45.2788 130.786 44.2031 130.998 43.101 130.998C41.7233 130.998 40.3456 130.76 38.9626 130.278C37.5955 129.811 36.4509 128.964 35.5395 127.75Z" fill="#F2F2F2"/>
<path d="M55.3467 109.628C54.5518 109.628 53.9902 109.501 53.6669 109.242C53.3384 108.987 53.1741 108.532 53.1741 107.875V107.207C53.1741 106.529 53.3543 106.068 53.7199 105.824C54.0802 105.58 54.6366 105.458 55.3838 105.458C56.1998 105.458 56.7721 105.585 57.1006 105.845C57.4291 106.105 57.5934 106.56 57.5934 107.212V107.88C57.5934 108.558 57.4185 109.019 57.0688 109.263C56.7191 109.507 56.1362 109.628 55.3467 109.628ZM57.4821 128.524C57.4821 129.134 57.2807 129.642 56.8886 130.05C56.4912 130.458 55.9878 130.665 55.3838 130.665C54.7744 130.665 54.271 130.458 53.8789 130.05C53.4815 129.642 53.2854 129.134 53.2854 128.524V114.048C53.2854 113.438 53.4815 112.93 53.8789 112.522C54.2763 112.114 54.7797 111.907 55.3838 111.907C55.9931 111.907 56.4912 112.114 56.8886 112.522C57.286 112.93 57.4821 113.438 57.4821 114.048V128.524Z" fill="#F2F2F2"/>
<path d="M79.9862 121.301C79.9862 123.22 79.557 124.905 78.7092 126.367C77.856 127.83 76.7115 128.969 75.2755 129.785C73.8395 130.601 72.234 131.014 70.4535 131.014C68.6784 131.014 67.0729 130.606 65.6316 129.785C64.1956 128.969 63.051 127.83 62.1979 126.367C61.3448 124.905 60.9209 123.22 60.9209 121.301C60.9209 119.383 61.3448 117.698 62.1979 116.236C63.051 114.773 64.1956 113.629 65.6316 112.802C67.0676 111.975 68.6731 111.557 70.4535 111.557C72.2287 111.557 73.8342 111.97 75.2755 112.802C76.7115 113.634 77.856 114.779 78.7092 116.236C79.557 117.698 79.9862 119.383 79.9862 121.301ZM75.7789 121.301C75.7789 120.109 75.5404 119.076 75.0582 118.202C74.5813 117.327 73.9349 116.644 73.1295 116.151C72.324 115.658 71.4285 115.414 70.4482 115.414C69.4679 115.414 68.5724 115.658 67.767 116.151C66.9616 116.644 66.3204 117.327 65.8382 118.202C65.3613 119.076 65.1176 120.109 65.1176 121.301C65.1176 122.472 65.356 123.49 65.8382 124.369C66.3151 125.244 66.9616 125.927 67.767 126.42C68.5724 126.913 69.4679 127.157 70.4482 127.157C71.4285 127.157 72.324 126.913 73.1295 126.42C73.9349 125.927 74.576 125.244 75.0582 124.369C75.5404 123.49 75.7789 122.472 75.7789 121.301ZM70.6284 110.714C70.4429 110.714 70.1992 110.614 69.9078 110.418C69.6163 110.222 69.4785 109.935 69.505 109.559C69.505 109.347 69.5739 109.125 69.717 108.892L71.7518 105.315C71.9637 104.944 72.2287 104.615 72.5572 104.334C72.8857 104.054 73.2566 103.916 73.6805 103.916C74.3323 103.916 74.8145 104.085 75.1165 104.425C75.4186 104.764 75.5616 105.177 75.5351 105.67C75.5139 105.903 75.4451 106.147 75.3444 106.406C75.2384 106.666 75.0794 106.92 74.8728 107.18L72.2075 110.126C71.9743 110.386 71.7147 110.545 71.4338 110.619C71.153 110.683 70.8827 110.714 70.6284 110.714Z" fill="#F2F2F2"/>
<path d="M93.6891 111.557C95.4165 111.557 96.7306 111.917 97.6315 112.643C98.5323 113.369 99.1522 114.334 99.4913 115.536C99.8305 116.739 100 118.08 100 119.548V128.519C100 129.128 99.7987 129.637 99.4066 130.045C99.0092 130.453 98.5058 130.659 97.9017 130.659C97.2923 130.659 96.7889 130.453 96.3968 130.045C95.9994 129.637 95.8033 129.128 95.8033 128.519V119.548C95.8033 118.774 95.7027 118.08 95.5066 117.46C95.3053 116.84 94.9502 116.342 94.4362 115.971C93.9223 115.6 93.1857 115.409 92.2266 115.409C91.294 115.409 90.5045 115.595 89.858 115.971C89.2169 116.347 88.7241 116.84 88.385 117.46C88.0458 118.08 87.8763 118.774 87.8763 119.548V128.519C87.8763 129.128 87.6749 129.637 87.2828 130.045C86.8854 130.453 86.382 130.659 85.7779 130.659C85.1685 130.659 84.6651 130.453 84.273 130.045C83.8756 129.637 83.6796 129.128 83.6796 128.519V114.042C83.6796 113.433 83.8756 112.924 84.273 112.516C84.6704 112.108 85.1738 111.901 85.7779 111.901C86.3873 111.901 86.8854 112.108 87.2828 112.516C87.6802 112.924 87.8763 113.433 87.8763 114.042V115.547L87.3517 115.441C87.5636 115.044 87.8657 114.62 88.2631 114.164C88.6605 113.708 89.1268 113.284 89.6673 112.887C90.2025 112.49 90.8118 112.166 91.4901 111.923C92.1577 111.679 92.8943 111.557 93.6891 111.557Z" fill="#F2F2F2"/>
<path d="M60.6509 23.1188C61.0165 23.4844 61.4934 23.6645 61.9756 23.6645C62.4525 23.6645 62.9347 23.4844 63.3003 23.1188C64.0316 22.3875 64.0316 21.2006 63.3003 20.4693L63.2738 20.4428C62.5426 19.7116 61.3556 19.7116 60.6244 20.4428C59.8931 21.1741 59.8931 22.361 60.6244 23.0923L60.6509 23.1188Z" fill="#F2F2F2"/>
<path d="M90.8435 40.8277L97.3452 34.326C97.7373 33.9339 97.9705 33.3881 97.9228 32.837C97.838 31.8196 97.0008 31.099 96.0523 31.099H82.5349C80.7651 23.8607 77.0559 17.2637 71.7517 11.9595C64.0419 4.24438 53.7886 0 42.8889 0C31.9891 0 21.7358 4.24438 14.026 11.9542C6.31618 19.6641 2.0665 29.9173 2.0665 40.8171C2.0665 51.7168 6.31088 61.9701 14.0207 69.6799C16.3151 71.9743 18.8321 73.9561 21.5239 75.6147L15.8806 85.5818C15.4567 86.3289 15.5892 87.2933 16.2674 87.908C16.6172 88.2259 17.0888 88.3796 17.5604 88.3796H27.1672C27.8401 88.3796 28.4654 88.0193 28.7939 87.4311L32.7787 80.3889C36.0428 81.2156 39.4287 81.6448 42.8836 81.6448C46.3384 81.6448 49.7244 81.2156 52.9885 80.3889L56.9732 87.4311C57.3071 88.0193 57.927 88.3796 58.6 88.3796H68.1909C68.6625 88.3796 69.1288 88.2259 69.4838 87.908C70.1621 87.2933 70.2893 86.3343 69.8707 85.5871L64.2327 75.6253C66.9245 73.9667 69.4414 71.9849 71.7306 69.6958C77.0294 64.397 80.7439 57.7999 82.5084 50.567H96.0099C96.561 50.567 97.1015 50.3444 97.4565 49.9258C98.1241 49.1469 98.0447 48.0394 97.3664 47.3665L90.8435 40.8277ZM87.4417 38.9572H74.3323L78.4495 34.84H91.5589L87.4417 38.9572ZM26.0703 84.6333H20.7344L24.8092 77.4375C26.2081 78.1316 27.6441 78.741 29.1119 79.2656L26.0703 84.6333ZM65.0434 84.6333H59.7074L56.6712 79.2656C58.139 78.741 59.575 78.1263 60.9739 77.4375L65.0434 84.6333ZM69.1341 67.0729C66.6595 69.5475 63.8935 71.6299 60.9156 73.2885C60.8785 73.3044 60.8414 73.3256 60.8043 73.3415C60.7831 73.3521 60.7619 73.368 60.7407 73.3839C58.4569 74.6397 56.0512 75.6465 53.5555 76.3936C53.4548 76.4148 53.3594 76.4413 53.264 76.4784C49.9364 77.4428 46.455 77.9409 42.8942 77.9409C39.3333 77.9409 35.852 77.4428 32.5243 76.4784C32.4289 76.4413 32.3336 76.4148 32.2329 76.3936C29.7371 75.6465 27.3314 74.6397 25.0476 73.3839C25.0264 73.368 25.0052 73.3574 24.984 73.3415C24.947 73.3203 24.9099 73.3044 24.8728 73.2885C21.8948 71.6299 19.1288 69.5475 16.6542 67.0729C8.0913 58.5259 4.22843 46.5398 6.33737 34.2306C7.23818 28.9847 9.30473 23.9932 12.3781 19.6482C19.5898 9.45316 30.7969 3.7145 42.8889 3.7145C52.803 3.7145 62.1237 7.57736 69.1341 14.5877C73.7388 19.1925 77.0241 24.8675 78.7144 31.099H77.7024C77.2043 31.099 76.7274 31.295 76.3776 31.6448L71.402 36.6204C70.9039 33.2291 69.8071 29.9332 68.1591 26.9288C67.7034 26.1022 66.7072 25.6941 65.8276 26.028C64.7361 26.4466 64.3016 27.7077 64.8473 28.688C66.6277 31.9097 67.6239 35.4175 67.8783 38.9519H59.6333C59.2147 35.1579 57.5402 31.6448 54.806 28.9106C51.6214 25.7259 47.3929 23.9773 42.8942 23.9773C38.3954 23.9773 34.1617 25.7312 30.9824 28.9106C27.5805 32.3124 25.816 36.9118 26.0703 41.755C26.2876 45.7768 27.962 49.6132 30.7598 52.5117C34.2464 56.1308 39.0631 57.9854 44.1182 57.6304C47.642 57.3813 51.0173 56.0142 53.7197 53.7357C57.1004 50.8849 59.167 46.9691 59.6333 42.6982H67.9154C67.4703 48.5587 64.9957 54.2497 60.6506 58.5894C55.9029 63.3372 49.5919 65.9496 42.8836 65.9496C36.1752 65.9496 29.859 63.3372 25.1165 58.5894C20.3687 53.8417 17.7564 47.536 17.7564 40.8224C17.7564 34.1087 20.3687 27.7978 25.1165 23.0553C32.9906 15.1812 45.284 13.4379 55.0233 18.8109C55.9294 19.309 57.0686 18.9805 57.572 18.0744C58.0701 17.1683 57.7416 16.029 56.8355 15.5256C51.4624 12.5583 45.1409 11.3766 39.026 12.198C32.7098 13.0458 26.9817 15.8807 22.4671 20.4006C16.4423 26.4254 13.406 34.6439 14.1055 43.2546C14.593 49.2105 16.9457 54.8908 20.8138 59.4479C26.4094 66.0343 34.363 69.6958 42.8836 69.6958C50.5987 69.6958 57.8475 66.6914 63.3054 61.2389C67.7352 56.809 70.5489 51.2134 71.455 45.035L76.4253 50.0053C76.7751 50.355 77.252 50.5511 77.75 50.5511H78.7144C77.0241 56.7931 73.7388 62.4682 69.1341 67.0729ZM48.9985 37.2986C48.4792 36.4031 47.3346 36.0958 46.4391 36.6151L41.9457 39.2062C41.3681 39.5401 41.0078 40.16 41.0078 40.8277C41.0078 41.4953 41.3628 42.1153 41.9457 42.4491L46.4391 45.0403C46.7358 45.2098 47.0538 45.2893 47.3717 45.2893C48.0182 45.2893 48.6487 44.9555 48.9932 44.3514C49.2952 43.8268 49.3164 43.2122 49.0991 42.6929H55.8499C55.4525 45.4801 54.1754 48.0606 52.146 50.0848C49.6714 52.5593 46.3808 53.9212 42.8783 53.9212C39.3757 53.9212 36.0851 52.5593 33.6106 50.0848C31.136 47.6102 29.7742 44.3196 29.7742 40.8171C29.7742 37.3145 31.136 34.0239 33.6106 31.5494C36.0851 29.0748 39.3757 27.713 42.8783 27.713C46.3808 27.713 49.6714 29.0748 52.146 31.5494C54.1754 33.5788 55.4525 36.1541 55.8499 38.9413H49.1044C49.3217 38.4379 49.3058 37.8285 48.9985 37.2986ZM78.4495 46.8207L74.3323 42.7035H87.4417L91.5589 46.8207H78.4495Z" fill="#F2F2F2"/>
</svg>
