<svg width="32" height="32" viewBox="0 0 32 32" fill="none" xmlns="http://www.w3.org/2000/svg">
<path d="M29.1046 21.124C30.1414 22.0332 31.3377 21.3154 31.3377 20.3158V4.89685C31.3377 2.19056 29.1471 0 26.4409 0H4.89685C2.19056 0 0 2.19056 0 4.89685V26.4409C0 29.1471 2.19056 31.3377 4.89685 31.3377H26.4409C29.1206 31.3377 31.3058 29.1737 31.3377 26.4993C31.343 25.8454 30.8379 25.2552 30.1839 25.218C29.4768 25.1754 28.8919 25.7337 28.8866 26.4302C28.876 27.786 27.7967 28.8919 26.4409 28.8919H20.4434V19.9543H23.2773C23.8994 19.9543 24.4204 19.4917 24.4949 18.8749L24.6544 17.5298C24.7394 16.8013 24.1705 16.158 23.4368 16.158H20.4434V12.0587C20.4434 11.0432 21.2675 10.2244 22.2777 10.2244H23.809C24.4842 10.2244 25.0319 9.67672 25.0319 9.00148V7.76265C25.0319 7.13526 24.5587 6.60888 23.9366 6.54508C23.3145 6.48128 22.6605 6.42811 22.2777 6.42811C20.8528 6.42811 19.4173 7.02892 18.3539 8.08166C17.2533 9.16099 16.6472 10.5806 16.6472 12.0693V16.158H13.893C13.2178 16.158 12.6701 16.7056 12.6701 17.3809V18.7261C12.6701 19.4013 13.2178 19.9489 13.893 19.9489H16.6472V28.8866H4.89685C3.54636 28.8866 2.45108 27.7913 2.45108 26.4409V4.89685C2.45108 3.54636 3.54636 2.45108 4.89685 2.45108H27.6318C28.3283 2.45108 28.8919 3.01467 28.8919 3.71118V20.6508C28.8866 20.8262 28.9664 21.0017 29.1046 21.124Z" fill="#F2F2F2"/>
</svg>
