<svg width="59" height="59" viewBox="0 0 59 59" fill="none" xmlns="http://www.w3.org/2000/svg">
<path d="M29.46 58.47H29.45C24.85 58.47 20.29 57.38 16.21 55.32L3.62 58.18C2.85 58.35 2.05 58.12 1.49 57.57C0.929998 57.01 0.690001 56.21 0.860001 55.44L3.59 43.04C1.25 38.71 0.01 33.97 0 29.27C0 29.25 0 29.24 0 29.22C0 21.43 3.08 14.09 8.68 8.56C14.26 3.04 21.64 0 29.47 0C37.32 0 44.69 3.05 50.23 8.57C55.85 14.17 58.94 21.51 58.94 29.25C58.94 35.1 57.18 40.75 53.87 45.59C53.15 46.64 51.72 46.91 50.67 46.19C49.62 45.47 49.35 44.04 50.07 42.99C52.86 38.92 54.33 34.16 54.34 29.25C54.34 22.75 51.73 16.56 46.99 11.83C42.32 7.17 36.1 4.61 29.48 4.61C15.79 4.61 4.65 15.63 4.62 29.19C4.62 29.2 4.62 29.22 4.62 29.23C4.62 33.43 5.8 37.68 8.03 41.53C8.32 42.03 8.41 42.62 8.29 43.18L6.15 52.89L16.03 50.64C16.58 50.52 17.15 50.6 17.64 50.86C21.25 52.82 25.34 53.86 29.47 53.86H29.48C33.97 53.86 38.38 52.65 42.23 50.35C43.32 49.7 44.74 50.06 45.39 51.15C46.04 52.24 45.68 53.66 44.59 54.31C40 57.03 34.78 58.47 29.46 58.47ZM23 17.51C22.5 16.39 21.96 16.35 21.48 16.33H20.19C19.74 16.33 19.01 16.5 18.39 17.17C17.77 17.84 16.03 19.47 16.03 22.77C16.03 26.07 18.45 29.27 18.78 29.72C19.12 30.17 23.44 37.17 30.29 39.86C35.98 42.1 37.14 41.65 38.38 41.54C39.62 41.43 42.37 39.92 42.93 38.35C43.49 36.78 43.49 35.44 43.32 35.16C43.15 34.88 42.7 34.71 42.03 34.38C41.36 34.04 38.05 32.39 37.43 32.17C36.81 31.95 36.36 31.83 35.91 32.51C35.46 33.18 34.14 34.74 33.74 35.18C33.35 35.63 32.95 35.68 32.28 35.35C31.61 35.01 29.46 34.29 26.88 32C24.88 30.22 23.49 27.95 23.09 27.28C22.7 26.61 23.05 26.24 23.39 25.91C23.69 25.61 24.1 25.2 24.44 24.81C24.78 24.42 24.87 24.14 25.1 23.69C25.32 23.24 25.21 22.85 25.04 22.51C24.9 22.16 23.6 18.84 23 17.51Z" fill="#E94E1B"/>
</svg>
